<svg xmlns="http://www.w3.org/2000/svg" enable-background="new 0 0 1024 1024" viewBox="0 0 1024 1024" id="drum-set">
  <path d="M510.97,320.39v113.72c0-11.16-33.24-20.21-74.25-20.21c-30.59,0-56.86,5.04-68.23,12.23c-3.87,2.45-6.01,5.15-6.01,7.98
			V320.39c0-10.24,27.97-18.7,64.24-20.03v18.36h20v-18.36C483,301.69,510.97,310.15,510.97,320.39z"></path>
  <path d="M491.85 296.45c-12.44-3.38-28.19-5.5-45.13-6.09v20.01c31.24 1.15 50.13 7.57 54.25 11.41v91.35c-1.76-.68-3.63-1.33-5.61-1.94-.57-.18-1.14-.35-1.73-.52-.58-.17-1.18-.34-1.78-.5-12.44-3.38-28.19-5.5-45.13-6.09-3.29-.12-6.63-.18-10-.18-3.37 0-6.71.06-10 .18-16.94.59-32.69 2.71-45.12 6.09-.6.16-1.2.33-1.78.5-.59.17-1.16.34-1.73.52-1.21.37-2.37.76-3.49 1.15-.46.17-.91.33-1.36.5-.25.1-.51.19-.76.29v-91.35c4.11-3.84 23-10.26 54.24-11.41v-20.01c-16.94.59-32.69 2.71-45.12 6.09-19.33 5.26-29.12 13.31-29.12 23.94v113.72c0 .21 0 .41.02.62.32 5.23 4.66 9.38 9.98 9.38 5.01 0 9.16-3.69 9.88-8.5.47-.46 1.16-.97 2.07-1.5.01 0 .01 0 .01 0 2.07-1.2 5.26-2.54 9.52-3.83.47-.15.96-.29 1.46-.43.04-.01.08-.03.12-.03.56-.17 1.14-.33 1.74-.48.42-.12.85-.23 1.3-.34.49-.12.99-.25 1.5-.36.06-.02.13-.04.19-.05 2.21-.53 4.61-1.03 7.2-1.49.33-.07.66-.13.99-.18 2.37-.42 4.9-.81 7.57-1.15.44-.06.88-.12 1.32-.17.88-.11 1.78-.22 2.7-.31.92-.11 1.85-.2 2.8-.29.95-.1 1.91-.18 2.89-.26.98-.08 1.97-.16 2.98-.23.5-.04 1.01-.07 1.52-.1 1.02-.07 2.06-.13 3.12-.18.96-.05 1.94-.09 2.93-.13 1.71-.07 3.46-.12 5.25-.15.69-.01 1.39-.02 2.09-.03 1.02-.01 2.05-.02 3.09-.02 1.04 0 2.07.01 3.09.02.7.01 1.4.02 2.09.03.57.01 1.13.02 1.68.04.74.01 1.47.04 2.2.06.5.02.99.03 1.48.06.91.03 1.8.07 2.69.11.08.01.16.01.23.02 1.02.05 2.03.11 3.02.17.52.03 1.03.07 1.53.1 1.08.08 2.15.16 3.19.25.82.07 1.64.14 2.44.22 2.46.23 4.81.49 7.06.79.57.08 1.13.15 1.69.23.49.06.97.13 1.44.21.64.09 1.28.19 1.9.29 1.21.19 2.39.39 3.53.6.76.13 1.51.27 2.23.42 1.08.21 2.13.42 3.13.65.01 0 .02 0 .03.01.9.2 1.76.4 2.6.6 2.35.57 4.47 1.16 6.36 1.76.26.08.51.16.76.25.5.15.98.32 1.44.48.44.15.86.31 1.27.47.42.15.83.31 1.22.47.23.09.46.18.67.28.79.33 1.51.66 2.15.99.26.13.52.27.75.4.13.07.26.14.38.21.93.54 1.63 1.05 2.11 1.52.73 4.81 4.88 8.5 9.89 8.5 5.3 0 9.65-4.14 9.98-9.36.02-.21.02-.43.02-.64V320.39C520.97 309.76 511.17 301.71 491.85 296.45zM662.28 320.39v96.8c0-10.97-22.31-20.08-51.55-21.79-3.26-.2-6.6-.3-10-.3s-6.74.1-10 .3c-29.24 1.71-51.56 10.82-51.56 21.79v-96.8c0-10.97 22.32-20.08 51.56-21.79v18.24h20V298.6C639.97 300.31 662.28 309.42 662.28 320.39z"></path>
  <path d="M610.73 288.59v20.01c25.49 1.57 39.68 8.86 41.56 12.16v73.29c-.12-.05-.24-.1-.36-.15-.41-.18-.82-.35-1.24-.52-.41-.17-.84-.34-1.26-.5-2.12-.83-4.35-1.58-6.66-2.27-.93-.27-1.87-.54-2.82-.79-.42-.12-.84-.23-1.26-.33-3.43-.88-7.01-1.62-10.69-2.23-.92-.15-1.85-.3-2.78-.43-.23-.03-.46-.07-.7-.1-.83-.12-1.66-.23-2.49-.33-.36-.05-.72-.09-1.08-.13-.79-.1-1.59-.19-2.39-.27-.34-.03-.68-.07-1.03-.1-.74-.07-1.48-.14-2.22-.2-.34-.03-.68-.06-1.03-.08-1.04-.08-2.08-.15-3.12-.21-.14-.01-.29-.02-.43-.02-1.02-.07-2.04-.11-3.05-.15-.89-.04-1.77-.07-2.66-.08-.35-.02-.7-.02-1.05-.03-1.08-.02-2.16-.03-3.24-.03s-2.16.01-3.24.03c-.35.01-.7.01-1.05.03-.89.01-1.77.04-2.66.08-1.01.04-2.03.08-3.05.15-.14 0-.29.01-.43.02-1.05.06-2.09.13-3.14.21-.34.03-.68.05-1.02.08-.76.06-1.52.13-2.27.21-.33.03-.65.06-.97.09-.82.09-1.64.18-2.46.28-.28.03-.56.06-.84.1-.95.11-1.89.24-2.83.37-.13.02-.26.04-.39.06-.98.14-1.96.29-2.93.45-2.88.48-5.7 1.04-8.44 1.68-.49.11-.98.23-1.46.35-.3.07-.6.15-.89.22-.39.1-.78.2-1.16.31-.48.12-.95.25-1.42.39-.47.13-.93.26-1.4.4-2.77.83-5.42 1.75-7.92 2.77-.42.17-.83.34-1.23.52-.12.05-.24.1-.36.15v-73.28c1.87-3.31 16.06-10.6 41.56-12.17v-20.01c-31.27 1.76-61.56 11.87-61.56 31.8v96.8c0 .17 0 .34.01.51.27 5.29 4.63 9.49 9.99 9.49 5.39 0 9.78-4.27 9.99-9.61.07-.13.16-.26.27-.4.54-.7 1.56-1.54 3.04-2.44.09-.06.18-.12.28-.17.17-.11.35-.21.53-.31.11-.06.22-.13.34-.19.25-.14.51-.28.78-.41.32-.17.65-.33 1-.5.86-.42 1.81-.84 2.85-1.26.42-.17.85-.33 1.29-.5.22-.08.45-.17.67-.25.49-.18.99-.36 1.51-.53.41-.14.83-.28 1.27-.42 2.07-.66 4.38-1.3 6.91-1.88.62-.15 1.25-.29 1.89-.42 3.73-.8 7.92-1.47 12.54-1.96.41-.05.83-.09 1.25-.13 3-.29 6.18-.5 9.54-.62 1.33-.04 2.69-.07 4.08-.08.51-.01 1.02-.01 1.53-.01s1.02 0 1.53.01c1.38.01 2.74.04 4.07.08.61.02 1.21.05 1.8.07.4.02.79.04 1.18.06 3.26.17 6.35.44 9.25.78.34.03.68.07 1.01.12.8.1 1.58.2 2.35.31.39.05.77.11 1.15.17.75.11 1.5.23 2.22.36 3.28.56 6.26 1.21 8.96 1.92.3.08.59.16.89.24.51.14 1.01.28 1.5.42 2.19.64 4.16 1.32 5.9 2 .22.08.43.16.63.25.31.12.61.25.91.38.21.08.41.17.61.26.99.43 1.88.86 2.68 1.29.16.08.32.16.47.25.81.45 1.52.88 2.12 1.3.3.2.57.4.82.6l.01.01c.28.22.52.44.73.65.07.06.14.13.2.2.12.12.21.23.3.34v.01c.11.14.2.27.27.4.1 2.53 1.13 4.81 2.77 6.53 1.82 1.9 4.39 3.08 7.23 3.08 2.83 0 5.39-1.18 7.21-3.08 1.62-1.68 2.65-3.92 2.78-6.41.01-.17.01-.34.01-.51v-96.8C672.29 300.46 642 290.35 610.73 288.59zM510.97 418.15c-2.76-1.83-6.1-3.51-10-5.02-1.76-.68-3.63-1.33-5.61-1.94-.57-.18-1.14-.35-1.73-.52-.58-.17-1.18-.34-1.78-.5-12.44-3.38-28.19-5.5-45.13-6.09-3.29-.12-6.63-.18-10-.18-3.37 0-6.71.06-10 .18-16.94.59-32.69 2.71-45.12 6.09-.6.16-1.2.33-1.78.5-.59.17-1.16.34-1.73.52-1.21.37-2.37.76-3.49 1.15-.46.17-.91.33-1.36.5-.25.1-.51.19-.76.29-3.9 1.51-7.24 3.19-10 5.02-2.76 1.83-4.95 3.82-6.57 5.96-2.28 3.03-3.43 6.37-3.43 10 0 .21 0 .41.02.62.12 3.4 1.26 6.53 3.41 9.38l.03.03c.24.31.48.62.74.92.26.31.54.61.82.91.18.2.38.39.58.59.27.26.54.52.83.77.28.26.58.51.88.76.27.22.54.43.82.65.04.03.08.06.12.09.32.25.66.49 1 .73.26.18.53.36.8.54.43.29.89.58 1.36.86.32.19.63.38.96.56.28.16.57.32.87.48.24.13.49.26.73.39.36.19.73.38 1.11.56.44.22.88.43 1.34.63.35.16.7.32 1.06.48.58.25 1.17.5 1.78.74.36.14.72.28 1.1.43.13.05.26.1.4.15.51.19 1.03.38 1.56.57.53.18 1.07.37 1.62.55 1.08.35 2.2.7 3.36 1.04.6.17 1.2.34 1.82.51 14.85 4.04 34.43 6.26 55.12 6.26 3.13 0 6.24-.05 9.31-.15 1.03-.03 2.05-.07 3.07-.12 4.06-.18 8.06-.44 11.96-.79 2.83-.26 5.9-.58 9.1-1 21.9-2.86 50.13-9.94 50.79-27.5.02-.21.02-.43.02-.64C520.97 427.89 517.62 422.56 510.97 418.15zM459.26 443.33c-7.21.65-14.79.98-22.54.98-1.05 0-2.08-.01-3.1-.02-.7 0-1.39-.02-2.08-.03-3.95-.07-7.72-.23-11.3-.46-.51-.03-1.02-.06-1.53-.1-1.7-.12-3.35-.25-4.96-.4-1.26-.12-2.5-.24-3.7-.37-.14-.02-.28-.03-.41-.05-.78-.08-1.54-.17-2.3-.27-1.33-.16-2.62-.34-3.88-.52-.47-.06-.94-.13-1.41-.21-.66-.1-1.31-.2-1.95-.31-.14-.02-.27-.04-.4-.06-.64-.11-1.26-.22-1.88-.33-.5-.09-.99-.18-1.48-.27-2.61-.49-5.01-1.01-7.22-1.56-.31-.08-.62-.15-.93-.23-1.78-.46-3.43-.93-4.93-1.4-.23-.07-.46-.14-.68-.22-.45-.14-.88-.28-1.3-.43-.36-.12-.71-.24-1.05-.37-.26-.09-.51-.18-.75-.28-.34-.12-.66-.25-.98-.38-1.64-.66-3-1.31-4.06-1.93 2.07-1.2 5.26-2.54 9.52-3.83.47-.15.96-.29 1.46-.43.04-.01.08-.03.12-.03.56-.17 1.14-.33 1.74-.48.42-.12.85-.23 1.3-.34.49-.12.99-.25 1.5-.36.06-.02.13-.04.19-.05 2.21-.53 4.61-1.03 7.2-1.49.33-.07.66-.13.99-.18 2.37-.42 4.9-.81 7.57-1.15.44-.06.88-.12 1.32-.17.88-.11 1.78-.22 2.7-.31.92-.11 1.85-.2 2.8-.29.95-.1 1.91-.18 2.89-.26.98-.08 1.97-.16 2.98-.23.5-.04 1.01-.07 1.52-.1 1.02-.07 2.06-.13 3.12-.18.96-.05 1.94-.09 2.93-.13 1.71-.07 3.46-.12 5.25-.15.69-.01 1.38-.03 2.09-.03 1.02-.01 2.05-.02 3.09-.02 1.04 0 2.07.01 3.09.02.7 0 1.4.02 2.09.03.57.01 1.13.02 1.68.04.74.01 1.47.04 2.2.06.5.02.99.03 1.48.06.91.03 1.8.07 2.69.11.08.01.16.01.23.02 1.02.05 2.03.11 3.02.17.52.03 1.03.07 1.53.1 1.08.08 2.15.16 3.19.25.82.07 1.64.14 2.44.22 2.46.23 4.81.49 7.06.79.57.07 1.14.15 1.69.23.49.06.97.13 1.44.21.64.09 1.28.19 1.9.29 1.21.19 2.39.39 3.53.6.76.13 1.51.27 2.23.42 1.08.21 2.13.42 3.13.65.01 0 .02 0 .03.01.9.19 1.77.39 2.6.6 2.35.57 4.47 1.16 6.36 1.76.26.08.51.16.76.25.5.15.98.32 1.44.48.44.15.86.31 1.27.47.42.15.83.31 1.22.47.23.09.46.18.67.28.79.33 1.51.66 2.15.99.26.13.52.27.75.4.13.07.26.14.38.21C493.82 437.04 481.21 441.34 459.26 443.33z"></path>
  <path d="M662.28 399.71c-2.94-2.19-6.44-4.13-10.35-5.81-.41-.18-.82-.35-1.24-.52-.41-.17-.84-.34-1.26-.5-2.12-.83-4.35-1.58-6.66-2.27-.93-.27-1.87-.54-2.82-.79-.42-.12-.84-.23-1.26-.33-3.43-.88-7.01-1.62-10.69-2.23-.92-.15-1.85-.3-2.78-.43-.23-.03-.46-.07-.7-.1-.83-.12-1.66-.23-2.49-.33-.36-.05-.72-.09-1.08-.13-.79-.1-1.59-.19-2.39-.27-.34-.03-.68-.07-1.03-.1-.74-.07-1.48-.14-2.22-.2-.34-.03-.68-.06-1.03-.08-1.04-.08-2.08-.15-3.12-.21-.14-.01-.29-.02-.43-.02-1.02-.07-2.04-.11-3.05-.15-.89-.04-1.77-.07-2.66-.08-.35-.02-.7-.02-1.05-.03-1.08-.02-2.16-.03-3.24-.03s-2.16.01-3.24.03c-.35.01-.7.01-1.05.03-.89.01-1.77.04-2.66.08-1.01.04-2.03.08-3.05.15-.14 0-.29.01-.43.02-1.05.06-2.09.13-3.14.21-.34.03-.68.05-1.02.08-.76.06-1.52.13-2.27.21-.33.03-.65.06-.97.09-.82.09-1.64.18-2.46.28-.28.03-.56.06-.84.1-.95.11-1.89.24-2.83.37-.13.02-.26.04-.39.06-.98.14-1.96.29-2.93.45-2.88.48-5.7 1.04-8.44 1.68-.49.11-.98.23-1.46.35-.3.07-.6.15-.89.22-.39.1-.78.2-1.16.31-.48.12-.95.25-1.42.39-.47.13-.93.26-1.4.4-2.77.83-5.42 1.75-7.92 2.77-.42.17-.83.34-1.23.52-3.92 1.68-7.42 3.62-10.36 5.82-6.24 4.64-10 10.45-10 17.47 0 .17 0 .34.01.51.34 13.23 14.2 23.34 38.47 28.36 2.73.57 5.58 1.07 8.57 1.5 3.87.56 7.85.99 11.9 1.27.2.02.4.03.61.04.86.06 1.72.11 2.59.16 2.01.11 4.05.18 6.1.21 1.1.02 2.2.03 3.31.03 2.82 0 5.6-.06 8.35-.19.6-.03 1.21-.06 1.81-.09 2.19-.12 4.35-.28 6.48-.48.15-.02.3-.03.45-.04.13-.01.27-.03.4-.04.51-.05 1.02-.1 1.52-.16.04 0 .08-.01.12-.01.56-.06 1.12-.13 1.67-.2.45-.05.9-.1 1.33-.16.72-.09 1.42-.18 2.13-.29.69-.09 1.37-.2 2.05-.31.65-.1 1.3-.21 1.94-.32.63-.1 1.26-.22 1.89-.34.68-.12 1.36-.25 2.03-.39.51-.1 1.01-.21 1.51-.32.29-.06.57-.12.85-.18.51-.11 1.02-.23 1.53-.36.37-.08.74-.17 1.1-.26.11-.03.22-.05.33-.08v-.01c.63-.14 1.25-.31 1.86-.48.4-.09.79-.2 1.17-.31.17-.05.34-.09.5-.14.49-.15.97-.29 1.45-.43 17.98-5.42 25.09-13.16 27.7-19.57.98-2.38 1.33-4.59 1.38-6.41.01-.17.01-.34.01-.51C672.29 410.16 668.53 404.36 662.28 399.71zM600.73 429.27c-7.49 0-14.77-.5-21.64-1.5-18.57-2.69-27.63-8.01-29.66-10.59.54-.7 1.56-1.54 3.04-2.44.09-.06.18-.12.28-.17.17-.11.35-.21.53-.31.11-.06.22-.13.34-.19.25-.14.51-.28.78-.41.32-.17.65-.33 1-.5.86-.42 1.81-.84 2.85-1.26.42-.17.85-.33 1.29-.5.22-.08.45-.17.67-.25.49-.18.99-.36 1.51-.53.41-.14.83-.28 1.27-.42 2.07-.66 4.38-1.3 6.91-1.88.61-.15 1.25-.29 1.89-.42 3.73-.8 7.92-1.47 12.54-1.96.41-.05.83-.09 1.25-.13 3-.29 6.18-.5 9.54-.62 1.33-.04 2.69-.07 4.08-.08.51-.01 1.02-.01 1.53-.01s1.02 0 1.53.01c1.38.01 2.74.04 4.07.08.61.02 1.21.05 1.8.07.4.02.79.04 1.18.06 3.26.17 6.35.44 9.25.78.34.03.68.07 1.01.12.8.1 1.58.2 2.35.31.39.05.77.11 1.15.17.75.11 1.5.23 2.22.36 3.28.56 6.26 1.21 8.96 1.92.3.08.59.16.89.24.51.14 1.01.28 1.5.42 2.19.64 4.16 1.32 5.9 2 .21.08.43.16.63.25.31.12.61.25.91.38.21.08.41.17.61.26.99.43 1.88.86 2.68 1.29.16.08.32.16.47.25.81.45 1.52.88 2.12 1.3.3.2.57.4.82.6l.01.01c.28.22.52.43.73.65.07.06.14.13.2.2.12.12.21.23.3.34v.01c-1.22 1.44-5.26 4.54-14.59 7.35C627.28 427.59 614.24 429.27 600.73 429.27zM679.08 640.26c-1.79-55.82-31.8-104.52-76.23-132.28-5.48-3.43-11.17-6.54-17.06-9.3-1.72-.8-3.45-1.58-5.2-2.31-4.22-1.8-8.54-3.43-12.94-4.88-15.91-5.22-32.91-8.04-50.57-8.04-16.31 0-32.07 2.41-46.92 6.9-4.33 1.3-8.58 2.79-12.75 4.44-54.93 21.76-95.13 72.66-101.53 133.64-.12 1.1-.22 2.2-.31 3.3-.04.5-.08.99-.12 1.49-.03.43-.06.86-.09 1.29-.03.49-.06.98-.09 1.47-.04.71-.08 1.42-.11 2.14-.03.71-.06 1.42-.08 2.14 0 .07 0 .14-.01.21-.02.84-.04 1.68-.06 2.52-.01.85-.02 1.71-.02 2.56 0 1.54.02 3.07.06 4.6.02.53.04 1.05.06 1.58.01.4.03.81.05 1.22.02.51.05 1.02.07 1.53.01.04.01.08.01.12.04.84.1 1.67.16 2.5.03.45.06.89.1 1.34.04.61.1 1.21.15 1.82.12 1.3.25 2.6.4 3.9.05.49.11.97.17 1.45 0 .03.01.06.01.09.13 1.02.26 2.03.41 3.04.15 1.1.32 2.19.5 3.28.12.75.25 1.5.38 2.24.12.66.24 1.32.37 1.97.07.39.15.77.23 1.16.1.49.2.98.3 1.47.09.44.18.89.28 1.33.14.65.29 1.3.44 1.95.1.46.21.91.32 1.37.13.54.26 1.09.4 1.63.18.71.36 1.42.55 2.13.16.62.33 1.24.51 1.86.17.62.35 1.24.53 1.86 4.39 15.09 10.92 29.26 19.24 42.18 28.84 44.8 79.15 74.47 136.39 74.47 84.56 0 154-64.76 161.43-147.38.44-4.85.66-9.75.66-14.71C679.17 643.78 679.14 642.01 679.08 640.26zM577.65 720.89c-20.17 0-36.58-16.42-36.58-36.59 0-20.18 16.41-36.59 36.58-36.59 20.18 0 36.59 16.41 36.59 36.59C614.24 704.47 597.83 720.89 577.65 720.89zM470.45 553.29h93.26v20h-93.26V553.29z"></path>
  <path d="M360.67,660.26c-0.45-4.84-0.68-9.75-0.68-14.71c0-1.76,0.03-3.53,0.09-5.29c0.09-2.85,0.26-5.7,0.52-8.53h-5.03
			c-0.04,0.5-0.08,0.99-0.12,1.49c-0.03,0.43-0.06,0.86-0.09,1.29c-0.03,0.49-0.06,0.98-0.09,1.47c-0.04,0.71-0.08,1.42-0.11,2.14
			c-0.03,0.71-0.06,1.42-0.08,2.14c0,0.07,0,0.14-0.01,0.21c-0.02,0.84-0.04,1.68-0.06,2.52c-0.01,0.85-0.02,1.71-0.02,2.56
			c0,1.54,0.02,3.07,0.06,4.6c0.02,0.53,0.04,1.05,0.06,1.58c0.01,0.4,0.03,0.81,0.05,1.22c0.02,0.51,0.05,1.02,0.07,1.53
			c0.01,0.04,0.01,0.08,0.01,0.12c0.04,0.84,0.1,1.67,0.16,2.5c0.03,0.45,0.06,0.89,0.1,1.34c0.04,0.61,0.1,1.21,0.15,1.82
			c0.12,1.3,0.25,2.6,0.4,3.9c0.05,0.49,0.11,0.97,0.17,1.45c0,0.03,0.01,0.06,0.01,0.09c0.13,1.02,0.26,2.03,0.41,3.04
			c0.15,1.1,0.32,2.19,0.5,3.28c0.12,0.75,0.25,1.5,0.38,2.24c0.12,0.66,0.24,1.32,0.37,1.97c0.07,0.39,0.15,0.77,0.23,1.16
			c0.1,0.49,0.2,0.98,0.3,1.47c0.09,0.44,0.18,0.89,0.28,1.33c0.14,0.65,0.29,1.3,0.44,1.95c0.1,0.46,0.21,0.91,0.32,1.37
			c0.13,0.54,0.26,1.09,0.4,1.63c0.18,0.71,0.36,1.42,0.55,2.13c0.16,0.62,0.33,1.24,0.51,1.86c0.17,0.62,0.35,1.24,0.53,1.86
			l5.27,4.41l1.93,1.61C364.58,685.32,361.86,673.01,360.67,660.26z M360.67,660.26c-0.45-4.84-0.68-9.75-0.68-14.71
			c0-1.76,0.03-3.53,0.09-5.29c0.09-2.85,0.26-5.7,0.52-8.53h-5.03c-0.04,0.5-0.08,0.99-0.12,1.49c-0.03,0.43-0.06,0.86-0.09,1.29
			c-0.03,0.49-0.06,0.98-0.09,1.47c-0.04,0.71-0.08,1.42-0.11,2.14c-0.03,0.71-0.06,1.42-0.08,2.14c0,0.07,0,0.14-0.01,0.21
			c-0.02,0.84-0.04,1.68-0.06,2.52c-0.01,0.85-0.02,1.71-0.02,2.56c0,1.54,0.02,3.07,0.06,4.6c0.02,0.53,0.04,1.05,0.06,1.58
			c0.01,0.4,0.03,0.81,0.05,1.22c0.02,0.51,0.05,1.02,0.07,1.53c0.01,0.04,0.01,0.08,0.01,0.12c0.04,0.84,0.1,1.67,0.16,2.5
			c0.03,0.45,0.06,0.89,0.1,1.34c0.04,0.61,0.1,1.21,0.15,1.82c0.12,1.3,0.25,2.6,0.4,3.9c0.05,0.49,0.11,0.97,0.17,1.45
			c0,0.03,0.01,0.06,0.01,0.09c0.13,1.02,0.26,2.03,0.41,3.04c0.15,1.1,0.32,2.19,0.5,3.28c0.12,0.75,0.25,1.5,0.38,2.24
			c0.12,0.66,0.24,1.32,0.37,1.97c0.07,0.39,0.15,0.77,0.23,1.16c0.1,0.49,0.2,0.98,0.3,1.47c0.09,0.44,0.18,0.89,0.28,1.33
			c0.14,0.65,0.29,1.3,0.44,1.95c0.1,0.46,0.21,0.91,0.32,1.37c0.13,0.54,0.26,1.09,0.4,1.63c0.18,0.71,0.36,1.42,0.55,2.13
			c0.16,0.62,0.33,1.24,0.51,1.86c0.17,0.62,0.35,1.24,0.53,1.86l5.27,4.41l1.93,1.61C364.58,685.32,361.86,673.01,360.67,660.26z
			 M684.08,640.26c-0.95-30.49-10.14-59.97-26.71-85.53c-12.01-18.51-27.44-34.36-45.41-46.75c-7.59-5.25-15.63-9.88-24.06-13.83
			c-1.94-0.91-3.7-1.69-5.35-2.38c-4.9-2.09-9.86-3.93-14.9-5.53c-16.27-5.18-33.22-7.79-50.57-7.79c-16.03,0-31.76,2.24-46.92,6.68
			c-4.93,1.44-9.8,3.11-14.6,5.01c-28.05,11.11-52.63,29.69-71.08,53.72c-10.09,13.13-18.1,27.6-23.85,42.93
			c-3.05,8.1-5.46,16.44-7.2,24.94c-1.11,5.33-1.95,10.73-2.52,16.17c-0.13,1.27-0.25,2.55-0.35,3.83c-0.24,2.83-0.4,5.68-0.48,8.53
			c-0.06,1.76-0.09,3.53-0.09,5.29c0,4.96,0.22,9.86,0.64,14.71c0.75,8.59,2.16,16.99,4.17,25.16c3.31,13.5,8.27,26.34,14.64,38.33
			l0.01,0.02c28.1,52.83,83.73,88.88,147.63,88.88c87.17,0,158.97-67.11,166.45-152.39c0.42-4.85,0.64-9.75,0.64-14.71
			C684.17,643.78,684.14,642.02,684.08,640.26z M674.17,645.55c0,4.96-0.23,9.87-0.68,14.71c-7.44,79.75-74.75,142.39-156.41,142.39
			c-52.45,0-98.97-25.84-127.52-65.46c-8.79-12.2-15.88-25.7-20.91-40.17v-0.01c-4.07-11.69-6.79-24-7.98-36.75
			c-0.45-4.84-0.68-9.75-0.68-14.71c0-1.76,0.03-3.53,0.09-5.29c0.09-2.85,0.26-5.7,0.52-8.53c0.07-0.93,0.16-1.86,0.26-2.78
			c6.11-58.27,43.81-107.89,98.39-129.51c3.57-1.41,7.18-2.69,10.82-3.83c15.15-4.76,30.91-7.16,47.01-7.16
			c17.41,0,34.39,2.8,50.63,8.34c3.69,1.25,7.33,2.65,10.93,4.18c1.56,0.66,3.21,1.39,5.03,2.24c3.18,1.49,6.29,3.08,9.33,4.77
			c48.1,26.62,79.2,77.14,81.08,132.28C674.14,642.02,674.17,643.78,674.17,645.55z M360.67,660.26c-0.45-4.84-0.68-9.75-0.68-14.71
			c0-1.76,0.03-3.53,0.09-5.29c0.09-2.85,0.26-5.7,0.52-8.53h-5.03c-0.04,0.5-0.08,0.99-0.12,1.49c-0.03,0.43-0.06,0.86-0.09,1.29
			c-0.03,0.49-0.06,0.98-0.09,1.47c-0.04,0.71-0.08,1.42-0.11,2.14c-0.03,0.71-0.06,1.42-0.08,2.14c0,0.07,0,0.14-0.01,0.21
			c-0.02,0.84-0.04,1.68-0.06,2.52c-0.01,0.85-0.02,1.71-0.02,2.56c0,1.54,0.02,3.07,0.06,4.6c0.02,0.53,0.04,1.05,0.06,1.58
			c0.01,0.4,0.03,0.81,0.05,1.22c0.02,0.51,0.05,1.02,0.07,1.53c0.01,0.04,0.01,0.08,0.01,0.12c0.04,0.84,0.1,1.67,0.16,2.5
			c0.03,0.45,0.06,0.89,0.1,1.34c0.04,0.61,0.1,1.21,0.15,1.82c0.12,1.3,0.25,2.6,0.4,3.9c0.05,0.49,0.11,0.97,0.17,1.45
			c0,0.03,0.01,0.06,0.01,0.09c0.13,1.02,0.26,2.03,0.41,3.04c0.15,1.1,0.32,2.19,0.5,3.28c0.12,0.75,0.25,1.5,0.38,2.24
			c0.12,0.66,0.24,1.32,0.37,1.97c0.07,0.39,0.15,0.77,0.23,1.16c0.1,0.49,0.2,0.98,0.3,1.47c0.09,0.44,0.18,0.89,0.28,1.33
			c0.14,0.65,0.29,1.3,0.44,1.95c0.1,0.46,0.21,0.91,0.32,1.37c0.13,0.54,0.26,1.09,0.4,1.63c0.18,0.71,0.36,1.42,0.55,2.13
			c0.16,0.62,0.33,1.24,0.51,1.86c0.17,0.62,0.35,1.24,0.53,1.86l5.27,4.41l1.93,1.61C364.58,685.32,361.86,673.01,360.67,660.26z
			 M360.67,660.26c-0.45-4.84-0.68-9.75-0.68-14.71c0-1.76,0.03-3.53,0.09-5.29c0.09-2.85,0.26-5.7,0.52-8.53h-5.03
			c-0.04,0.5-0.08,0.99-0.12,1.49c-0.03,0.43-0.06,0.86-0.09,1.29c-0.03,0.49-0.06,0.98-0.09,1.47c-0.04,0.71-0.08,1.42-0.11,2.14
			c-0.03,0.71-0.06,1.42-0.08,2.14c0,0.07,0,0.14-0.01,0.21c-0.02,0.84-0.04,1.68-0.06,2.52c-0.01,0.85-0.02,1.71-0.02,2.56
			c0,1.54,0.02,3.07,0.06,4.6c0.02,0.53,0.04,1.05,0.06,1.58c0.01,0.4,0.03,0.81,0.05,1.22c0.02,0.51,0.05,1.02,0.07,1.53
			c0.01,0.04,0.01,0.08,0.01,0.12c0.04,0.84,0.1,1.67,0.16,2.5c0.03,0.45,0.06,0.89,0.1,1.34c0.04,0.61,0.1,1.21,0.15,1.82
			c0.12,1.3,0.25,2.6,0.4,3.9c0.05,0.49,0.11,0.97,0.17,1.45c0,0.03,0.01,0.06,0.01,0.09c0.13,1.02,0.26,2.03,0.41,3.04
			c0.15,1.1,0.32,2.19,0.5,3.28c0.12,0.75,0.25,1.5,0.38,2.24c0.12,0.66,0.24,1.32,0.37,1.97c0.07,0.39,0.15,0.77,0.23,1.16
			c0.1,0.49,0.2,0.98,0.3,1.47c0.09,0.44,0.18,0.89,0.28,1.33c0.14,0.65,0.29,1.3,0.44,1.95c0.1,0.46,0.21,0.91,0.32,1.37
			c0.13,0.54,0.26,1.09,0.4,1.63c0.18,0.71,0.36,1.42,0.55,2.13c0.16,0.62,0.33,1.24,0.51,1.86c0.17,0.62,0.35,1.24,0.53,1.86
			l5.27,4.41l1.93,1.62v-0.01C364.58,685.32,361.86,673.01,360.67,660.26z"></path>
  <path d="M376.42 456.5c1.08.36 2.2.7 3.36 1.04C378.62 457.2 377.5 456.85 376.42 456.5zM376.42 456.5c1.08.36 2.2.7 3.36 1.04C378.62 457.2 377.5 456.85 376.42 456.5zM466.91 445.91c-2.08-1.9-4.87-2.83-7.65-2.58-7.21.65-14.79.98-22.54.98-1.05 0-2.08-.01-3.1-.02-.7 0-1.39-.02-2.08-.03-3.95-.07-7.72-.23-11.3-.46-.51-.03-1.02-.06-1.53-.1-1.7-.12-3.35-.25-4.96-.4-1.26-.12-2.5-.24-3.7-.37-.14-.02-.28-.03-.41-.05-.78-.08-1.54-.17-2.3-.27-1.33-.16-2.62-.34-3.88-.52-.47-.06-.94-.13-1.41-.21-.66-.1-1.31-.2-1.95-.31-.14-.02-.27-.04-.4-.06-.64-.11-1.26-.21-1.88-.33-.5-.08-1-.18-1.48-.27-2.61-.49-5.01-1.01-7.22-1.56-.31-.08-.62-.15-.93-.23-1.78-.46-3.43-.93-4.93-1.4-.23-.07-.46-.14-.68-.22-.45-.14-.88-.28-1.3-.43-.36-.12-.71-.24-1.05-.37-.26-.09-.51-.18-.75-.28-.34-.12-.66-.25-.98-.38-1.64-.66-3-1.31-4.06-1.93 0 0 0 0-.01 0-.91-.53-1.6-1.04-2.07-1.5-.4-2.65-1.83-4.95-3.87-6.48-1.67-1.27-3.76-2.02-6.01-2.02h-85.59c-5.52 0-10 4.47-10 10v187.62c0 5.52 4.48 10 10 10h86.44c5.12 0 9.41-3.87 9.95-8.96 5.62-53.63 40.32-99.31 90.56-119.21 3.4-1.34 5.75-4.4 6.23-7.95.06-.44.09-.89.09-1.34v-40.98C470.16 450.48 468.98 447.8 466.91 445.91zM354.58 611.73h-67.69V444.11h69.02l.03.03c.24.31.48.62.74.92.26.31.54.61.82.91.18.2.38.39.58.59.27.26.54.52.83.77.28.26.58.51.88.76.27.22.54.43.82.65.04.03.08.06.12.09.32.25.66.49 1 .73.26.18.53.36.8.54.43.29.89.58 1.36.86.32.19.63.38.96.56.28.16.57.32.87.48.24.13.49.26.73.39.36.19.73.38 1.11.56.44.22.88.43 1.34.63.35.16.7.32 1.06.48.58.25 1.17.5 1.78.74.36.14.72.28 1.1.43.13.05.26.1.4.15.51.19 1.03.38 1.56.57.53.18 1.07.37 1.62.55 1.08.36 2.2.7 3.36 1.04.6.17 1.2.34 1.82.51 14.85 4.04 34.43 6.26 55.12 6.26 3.13 0 6.24-.05 9.31-.15 1.03-.03 2.05-.07 3.07-.12.36-.01.71-.02 1.06-.04v23.62c-25 11.14-46.92 28.41-63.7 50.26-11.38 14.81-20.09 31.35-25.83 48.91C357.97 594.91 355.95 603.25 354.58 611.73zM376.42 456.5c1.08.36 2.2.7 3.36 1.04C378.62 457.2 377.5 456.85 376.42 456.5zM376.42 456.5c1.08.36 2.2.7 3.36 1.04C378.62 457.2 377.5 456.85 376.42 456.5zM745.88 424.11H640.31c-.98 0-1.95.14-2.88.42-10.15 3.06-23.19 4.74-36.7 4.74-7.49 0-14.77-.5-21.64-1.5-2.88-.42-5.79.44-7.98 2.34-2.2 1.9-3.46 4.66-3.46 7.56v58.1c0 .34.02.68.06 1.02.36 3.6 2.67 6.76 6.06 8.19 1.42.6 2.93 1.28 4.63 2.06 1.32.62 2.76.94 4.21.94h163.27c5.53 0 10-4.48 10-10v-63.87C755.88 428.58 751.41 424.11 745.88 424.11zM735.88 487.98H587.65V448.8c.16.01.31.02.47.03.2.02.4.03.61.04.86.06 1.72.11 2.59.16 2.01.11 4.05.18 6.1.21 1.1.02 2.2.03 3.31.03 2.82 0 5.6-.06 8.35-.19.6-.03 1.21-.06 1.81-.09 2.19-.12 4.35-.28 6.48-.48.15-.02.3-.03.45-.04.13-.02.27-.03.4-.05.51-.04 1.02-.09 1.52-.15.04 0 .08-.01.12-.01.56-.06 1.12-.13 1.67-.2.45-.05.9-.1 1.33-.16.72-.09 1.42-.18 2.13-.29.69-.09 1.37-.2 2.05-.31.65-.1 1.3-.21 1.94-.32.63-.1 1.26-.22 1.89-.34.68-.12 1.36-.25 2.03-.39.51-.1 1.01-.21 1.51-.32.29-.06.57-.12.85-.18.51-.11 1.02-.23 1.53-.36.37-.08.74-.17 1.1-.26.11-.02.22-.05.33-.09.63-.14 1.25-.31 1.86-.48.4-.09.79-.2 1.17-.31.17-.05.34-.09.5-.14h94.13V487.98zM332.84 242.43c-20.56-10.07-48.54-18.23-78.77-22.96-17.3-2.71-35.2-4.24-51.9-4.24-38.8 0-71.11 8.28-74.4 29.3-4.62 29.53 52.91 52.62 109.45 61.97 1.05.18 2.09.35 3.14.51 5.58.87 11.22 1.62 16.86 2.23 11.86 1.31 23.73 2.01 35.04 2.01 38.8 0 71.11-8.28 74.4-29.3C368.19 272.22 363.56 257.47 332.84 242.43zM346.9 278.85c-.21 1.34-5.74 7.44-27.4 10.59-17.34 2.53-39.07 2.39-62.28-.31-4.54-.53-9.13-1.15-13.76-1.88-2.09-.33-4.18-.67-6.24-1.03-25.87-4.52-49.4-11.6-66.83-20.13-19.66-9.62-23.07-17.12-22.86-18.46.21-1.34 5.75-7.44 27.41-10.59 20.73-3.02 47.74-2.24 76.04 2.19 28.3 4.43 54.25 11.95 73.07 21.16C343.71 270.02 347.11 277.51 346.9 278.85z"></path>
  <path d="M250.37,243.15c-4.13-0.65-8.47-1.02-12.72-1.02c-13.67,0-26.39,3.89-28.17,15.2c-2.02,12.9,12.48,20.97,27.74,24.65
			c2.29,0.55,4.59,1,6.85,1.35c4.13,0.65,8.47,1.03,12.72,1.03h0.43c13.5-0.08,25.98-4.02,27.73-15.21
			C287.27,254.32,267.77,245.87,250.37,243.15z M247.27,262.91c2.42,0.37,4.6,0.85,6.55,1.36c-2.01-0.1-4.24-0.32-6.65-0.69
			c-2.42-0.38-4.6-0.85-6.55-1.37C242.63,262.31,244.85,262.53,247.27,262.91z"></path>
  <rect width="20" height="497.26" x="237.22" y="268.5"></rect>
  <path d="M387.88 739.19L247.22 621.45 106.55 739.19l-12.84-15.34L240.8 600.74c3.72-3.11 9.12-3.11 12.84 0l147.08 123.12L387.88 739.19zM915.51 736.08l-86.57-131.75-86.57 131.75-16.71-10.98 94.92-144.47c1.85-2.81 4.99-4.51 8.36-4.51s6.51 1.69 8.36 4.51l94.92 144.47L915.51 736.08z"></path>
  <path d="M294.74 802.41l-18.62-7.31 58.27-148.5c1.5-3.83 5.2-6.35 9.31-6.35h19.26v20h-12.44L294.74 802.41zM739.42 802.41l-55.78-142.15H671.2v-20h19.26c4.11 0 7.81 2.52 9.31 6.35l58.27 148.5L739.42 802.41z"></path>
  <rect width="20" height="378.35" x="818.95" y="378.02"></rect>
  <rect width="20" height="97.52" x="818.95" y="233.6"></rect>
  <rect width="20" height="30.54" x="305.89" y="434.11"></rect>
  <rect width="20" height="31.48" x="590.73" y="364.09"></rect>
  <rect width="20" height="32.19" x="426.72" y="381.71"></rect>
  <rect width="20" height="31.94" x="685.32" y="434.11"></rect>
  <rect width="20" height="31.94" x="618.22" y="434.11"></rect>
  <g>
    <rect width="20" height="30.54" x="305.89" y="591.19"></rect>
  </g>
  <g>
    <rect width="48.67" height="20" x="863.72" y="344.57"></rect>
  </g>
  <g>
    <rect width="48.67" height="20" x="745.5" y="344.57"></rect>
  </g>
  <g>
    <path d="M870.54,347.25l-2.88-2.68l-15.22-14.19c-3.89-3.63-8.5-6.27-13.49-7.78c-3.21-0.98-6.58-1.48-10-1.48s-6.79,0.5-10,1.48
			c-4.99,1.5-9.6,4.14-13.5,7.77l-15.23,14.2l-2.87,2.68c-2.02,1.89-3.18,4.54-3.18,7.32c0,2.77,1.15,5.42,3.18,7.31l2.88,2.69
			l15.23,14.2c3.89,3.63,8.5,6.26,13.49,7.77c3.21,0.98,6.58,1.48,10,1.48s6.79-0.5,10-1.48c4.99-1.51,9.6-4.14,13.48-7.77
			l15.23-14.2l2.88-2.69c2.03-1.89,3.18-4.54,3.18-7.31C873.72,351.79,872.57,349.14,870.54,347.25z M838.79,364.15
			c-2.68,2.49-6.17,3.87-9.84,3.87c-3.68,0-7.18-1.38-9.85-3.88l-10.27-9.57l10.26-9.57c2.69-2.5,6.19-3.88,9.86-3.88
			c3.66,0,7.16,1.38,9.84,3.88l10.27,9.57L838.79,364.15z"></path>
  </g>
</svg>
