<svg xmlns="http://www.w3.org/2000/svg" viewBox="0 0 64 64" id="guitar">
  <path d="m48.576 44.449.263 5.65 5.65-.263a2.381 2.381 0 1 0-.222-4.758l-.892.041-.041-.892a2.381 2.381 0 1 0-4.758.222zm8.933 10.652a1.836 1.836 0 0 0-1.919 1.749l-.032.688-.688-.032a1.836 1.836 0 1 0-.17 3.668l4.355.202.202-4.355a1.836 1.836 0 0 0-1.748-1.92z"></path>
  <circle cx="51.759" cy="36.375" r="1.25"></circle>
  <circle cx="59.259" cy="41.349" r="1.25"></circle>
  <circle cx="48.009" cy="55.099" r="1.25"></circle>
  <path d="m9.03 17.336 5.65.263.263-5.65a2.382 2.382 0 0 0-4.758-.222l-.041.892-.892-.041a2.381 2.381 0 1 0-.222 4.758zM4.261 24.52l.202 4.355 4.355-.202a1.836 1.836 0 1 0-.17-3.668l-.688.032-.032-.688a1.836 1.836 0 1 0-3.667.171z"></path>
  <circle cx="11.759" cy="3.875" r="1.25"></circle>
  <circle cx="4.259" cy="8.849" r="1.25"></circle>
  <circle cx="15.509" cy="22.599" r="1.25"></circle>
  <path d="M25.509 19.5a3.129 3.129 0 0 0 3.125-3.125V6.863l8.75-2.188v5.451a3.108 3.108 0 0 0-1.875-.626c-1.723 0-3.125 1.402-3.125 3.125s1.402 3.125 3.125 3.125 3.125-1.402 3.125-3.125v-8.75a.627.627 0 0 0-.776-.607l-10 2.5a.626.626 0 0 0-.473.606v7.502a3.111 3.111 0 0 0-1.875-.627c-1.723 0-3.125 1.402-3.125 3.125s1.401 3.126 3.124 3.126zm-5.803 20.742c-1.12 0-2.241.426-3.094 1.279a4.347 4.347 0 0 0-1.281 3.094c0 1.169.455 2.267 1.281 3.094a4.38 4.38 0 0 0 6.187 0 4.347 4.347 0 0 0 1.281-3.094 4.349 4.349 0 0 0-1.281-3.094 4.357 4.357 0 0 0-3.093-1.279z"></path>
  <path d="M25.225 43.516c.071.358.107.726.107 1.099a5.584 5.584 0 0 1-1.648 3.977c-1.097 1.097-2.537 1.645-3.977 1.645s-2.881-.548-3.977-1.645a5.59 5.59 0 0 1-1.648-3.977 5.626 5.626 0 0 1 6.721-5.515l14.491-14.491c-4.108-2.189-9.14-1.466-12.485 1.879a10.593 10.593 0 0 0-2.834 5.096.623.623 0 0 1-.668.481 14.343 14.343 0 0 0-11.524 4.146c-5.605 5.605-5.605 14.725 0 20.329 5.605 5.605 14.725 5.605 20.329 0a14.34 14.34 0 0 0 4.146-11.524.625.625 0 0 1 .481-.667 10.593 10.593 0 0 0 5.096-2.834c3.345-3.345 4.068-8.377 1.879-12.486L25.225 43.516zm24.528-33.367.889-.889-2.21-2.21a.625.625 0 0 0-.884.884c.991.99 1.695 1.702 2.205 2.215zm3.541-3.541.884-.884-2.21-2.21a.625.625 0 0 0-.884.884l2.21 2.21zm3.978 10.165a.625.625 0 0 0 0-.884l-2.21-2.21-.886.886c2.373 2.391 2.318 2.391 2.654 2.391.16 0 .319-.061.442-.183zm3.535-4.42-2.21-2.21-.885.885c2.453 2.465 2.349 2.391 2.653 2.391a.625.625 0 0 0 .442-1.066z"></path>
  <path d="M22.13 39.54a5.642 5.642 0 0 1 2.654 2.649L59.562 7.411 56.91 4.759 22.13 39.54z"></path>
</svg>
