<svg xmlns="http://www.w3.org/2000/svg" fill-rule="evenodd" stroke-linejoin="round" stroke-miterlimit="2" clip-rule="evenodd" viewBox="0 0 32 32" id="piano">
  <path d="M27,7.101l0,7.899c-0,1.105 -0.895,2 -2,2l0,8l1,0c1.326,0 2.598,-0.527 3.536,-1.464c0.937,-0.938 1.464,-2.21 1.464,-3.536l-0,-8c-0,-1.326 -0.527,-2.598 -1.464,-3.536c-0.699,-0.698 -1.583,-1.168 -2.536,-1.363Zm-8,-0.101l0,8c-0,1.105 -0.895,2 -2,2l0,8l6,-0l-0,-8l-0,-0c-1.105,-0 -2,-0.895 -2,-2l0,-8l-2,0Zm-8,0l0,8c-0,1.105 -0.895,2 -2,2l0,8l6,-0l-0,-8l-0,-0c-1.105,-0 -2,-0.895 -2,-2l0,-8l-2,0Zm-6,0.101c-0.953,0.195 -1.837,0.665 -2.536,1.363c-0.937,0.938 -1.464,2.21 -1.464,3.536l0,8c0,1.326 0.527,2.598 1.464,3.536c0.938,0.937 2.21,1.464 3.536,1.464l1,-0l0,-8l-0,-0c-1.105,-0 -2,-0.895 -2,-2l0,-7.899Zm2,-0.101l2,0l-0,8l-2,-0l-0,-8Zm8,0l2,0l0,8l-2,-0l-0,-8Zm8,0l2,0l0,8l-2,-0l-0,-8Z"></path>
</svg>
